<?xml version="1.0" encoding="UTF-8"?>
<svg id="Layer_1" data-name="Layer 1" xmlns="http://www.w3.org/2000/svg" viewBox="0 0 290.04 296.06">
  <defs>
    <style>
      .cls-1 {
        fill: #f8991d;
      }

      .cls-1, .cls-2 {
        stroke-width: 0px;
      }

      .cls-3 {
        fill: #fff;
        font-family: MontserratRoman-Bold, Montserrat;
        font-size: 91.62px;
        font-variation-settings: 'wght' 700;
        font-weight: 700;
      }

      .cls-2 {
        fill: #1f1f1f;
      }
    </style>
  </defs>
  <rect class="cls-2" width="290.04" height="290.04" rx="13.53" ry="13.53"/>
  <g>
    <g>
      <g>
        <rect class="cls-1" x="159.74" y="112.9" width="1.04" height="52.65" transform="translate(-51.25 120.99) rotate(-36.05)"/>
        <rect class="cls-1" x="158.63" y="111.79" width="3.26" height="54.87" transform="translate(-51.25 120.98) rotate(-36.05)"/>
      </g>
      <g>
        <rect class="cls-1" x="175.56" y="157.3" width="39.2" height="1.04" transform="translate(-19.84 28.33) rotate(-7.9)"/>
        <rect class="cls-1" x="174.46" y="156.19" width="41.41" height="3.26" transform="translate(-19.93 28.48) rotate(-7.94)"/>
      </g>
      <g>
        <rect class="cls-1" x="179.15" y="96.98" width="1.04" height="79.1" transform="translate(-25.29 230.94) rotate(-61.96)"/>
        <rect class="cls-1" x="178.04" y="95.88" width="3.26" height="81.31" transform="translate(-25.29 230.94) rotate(-61.96)"/>
      </g>
      <g>
        <rect class="cls-1" x="231.02" y="139.7" width="1.04" height="34.09" transform="translate(53.44 372.29) rotate(-84.53)"/>
        <rect class="cls-1" x="229.92" y="138.6" width="3.25" height="36.3" transform="translate(53.43 372.29) rotate(-84.53)"/>
      </g>
      <g>
        <rect class="cls-1" x="213.7" y="165.03" width="36.29" height="1.04" transform="translate(-46.61 105.38) rotate(-23.34)"/>
        <rect class="cls-1" x="212.6" y="163.93" width="38.5" height="3.26" transform="translate(-46.61 105.36) rotate(-23.33)"/>
      </g>
      <g>
        <rect class="cls-1" x="214.36" y="155.12" width="1.04" height="17.63" transform="translate(-5.55 7.54) rotate(-1.98)"/>
        <rect class="cls-1" x="213.25" y="154.01" width="3.25" height="19.84" transform="translate(-5.55 7.54) rotate(-1.99)"/>
      </g>
      <g>
        <rect class="cls-1" x="194.95" y="145.98" width="1.04" height="41.29" transform="translate(-21.57 303.98) rotate(-72.77)"/>
        <rect class="cls-1" x="193.84" y="144.87" width="3.26" height="43.5" transform="translate(-21.57 303.97) rotate(-72.77)"/>
      </g>
      <g>
        <rect class="cls-1" x="179.45" y="100.72" width="1.04" height="89.23" transform="translate(-45.25 198.13) rotate(-52.11)"/>
        <rect class="cls-1" x="178.35" y="99.62" width="3.26" height="91.45" transform="translate(-45.26 198.13) rotate(-52.11)"/>
      </g>
      <g>
        <rect class="cls-1" x="207.58" y="152.44" width="59.01" height="1.04" transform="translate(-41.36 198.5) rotate(-42.12)"/>
        <rect class="cls-1" x="206.47" y="151.34" width="61.22" height="3.26" transform="translate(-41.31 198.84) rotate(-42.19)"/>
      </g>
      <g>
        <rect class="cls-1" x="240.11" y="145.26" width="27.27" height="1.04" transform="translate(21.62 323.98) rotate(-67.39)"/>
        <rect class="cls-1" x="239" y="144.15" width="29.48" height="3.26" transform="translate(21.36 323.64) rotate(-67.31)"/>
      </g>
      <g>
        <rect class="cls-1" x="212.02" y="143.63" width="49.52" height="1.04" transform="translate(-39.37 119.92) rotate(-26.32)"/>
        <rect class="cls-1" x="210.91" y="142.53" width="51.74" height="3.26" transform="translate(-39.38 120.04) rotate(-26.34)"/>
      </g>
      <g>
        <polygon class="cls-1" points="175.91 161.01 175.59 160.02 258.82 132.69 259.14 133.68 175.91 161.01"/>
        <polygon class="cls-1" points="175.21 162.4 174.19 159.31 175.24 158.97 259.52 131.3 260.54 134.39 175.21 162.4"/>
      </g>
      <g>
        <rect class="cls-1" x="252.08" y="125.04" width="15.32" height="1.04" transform="translate(108.96 371.53) rotate(-84.29)"/>
        <rect class="cls-1" x="250.98" y="123.94" width="17.54" height="3.26" transform="translate(109.1 371.61) rotate(-84.32)"/>
      </g>
      <g>
        <rect class="cls-1" x="202.29" y="144.82" width="71.11" height="1.04" transform="translate(-25.69 236.13) rotate(-50.44)"/>
        <rect class="cls-1" x="201.18" y="143.71" width="73.32" height="3.26" transform="translate(-25.73 236.02) rotate(-50.41)"/>
      </g>
      <g>
        <rect class="cls-1" x="133.91" y="96.15" width="52.65" height="1.04" transform="translate(-12.19 169.4) rotate(-53.97)"/>
        <rect class="cls-1" x="132.8" y="95.04" width="54.87" height="3.26" transform="translate(-12.14 169.51) rotate(-54.01)"/>
      </g>
      <g>
        <rect class="cls-1" x="194.62" y="58.48" width="1.04" height="39.2" transform="translate(90.98 260.63) rotate(-82.1)"/>
        <rect class="cls-1" x="193.52" y="57.37" width="3.26" height="41.41" transform="translate(90.97 260.63) rotate(-82.1)"/>
      </g>
      <g>
        <rect class="cls-1" x="140.1" y="98.84" width="79.1" height="1.04" transform="translate(-25.62 96.06) rotate(-28.02)"/>
        <rect class="cls-1" x="138.99" y="97.73" width="81.31" height="3.26" transform="translate(-25.62 96.13) rotate(-28.05)"/>
      </g>
      <g>
        <rect class="cls-1" x="214.48" y="78.63" width="34.09" height="1.04" transform="translate(-6.47 22.33) rotate(-5.45)"/>
        <rect class="cls-1" x="213.37" y="77.52" width="36.3" height="3.26" transform="translate(-6.51 22.52) rotate(-5.49)"/>
      </g>
      <g>
        <rect class="cls-1" x="231.31" y="52.2" width="1.04" height="36.29" transform="translate(75.44 255.37) rotate(-66.67)"/>
        <rect class="cls-1" x="230.2" y="51.09" width="3.25" height="38.5" transform="translate(75.44 255.37) rotate(-66.67)"/>
      </g>
      <g>
        <rect class="cls-1" x="206.05" y="71.44" width="17.63" height="1.04" transform="translate(135.55 284.22) rotate(-88.03)"/>
        <rect class="cls-1" x="204.94" y="70.34" width="19.84" height="3.26" transform="translate(135.38 284.16) rotate(-87.98)"/>
      </g>
      <g>
        <rect class="cls-1" x="174.81" y="68.75" width="41.29" height="1.04" transform="translate(-11.75 61.07) rotate(-17.25)"/>
        <rect class="cls-1" x="173.7" y="67.64" width="43.5" height="3.26" transform="translate(-11.75 61.14) rotate(-17.27)"/>
      </g>
      <g>
        <rect class="cls-1" x="135.34" y="90.03" width="89.23" height="1.04" transform="translate(-17.69 129.55) rotate(-37.87)"/>
        <rect class="cls-1" x="134.23" y="88.93" width="91.45" height="3.26" transform="translate(-17.72 129.4) rotate(-37.83)"/>
      </g>
      <g>
        <rect class="cls-1" x="236.54" y="53.43" width="1.04" height="59.01" transform="translate(16.62 203.28) rotate(-47.91)"/>
        <rect class="cls-1" x="235.43" y="52.32" width="3.26" height="61.22" transform="translate(16.62 203.27) rotate(-47.91)"/>
      </g>
      <g>
        <rect class="cls-1" x="253.2" y="76.48" width="1.04" height="27.27" transform="translate(-15.15 104.31) rotate(-22.58)"/>
        <rect class="cls-1" x="252.1" y="75.37" width="3.26" height="29.48" transform="translate(-15.15 104.33) rotate(-22.58)"/>
      </g>
      <g>
        <rect class="cls-1" x="236.24" y="66.98" width="1.04" height="49.52" transform="translate(49.65 263.38) rotate(-63.71)"/>
        <rect class="cls-1" x="235.13" y="65.87" width="3.26" height="51.74" transform="translate(49.64 263.37) rotate(-63.71)"/>
      </g>
      <g>
        <polygon class="cls-1" points="258.8 103.2 175.57 75.88 175.9 74.89 259.12 102.21 258.8 103.2"/>
        <rect class="cls-1" x="215.72" y="44.14" width="3.26" height="89.81" transform="translate(64.95 267.77) rotate(-71.83)"/>
      </g>
      <g>
        <rect class="cls-1" x="259.2" y="102.67" width="1.04" height="15.32" transform="translate(-9.72 26.48) rotate(-5.73)"/>
        <rect class="cls-1" x="258.1" y="101.56" width="3.26" height="17.54" transform="translate(-9.71 26.46) rotate(-5.72)"/>
      </g>
      <g>
        <rect class="cls-1" x="237.31" y="55" width="1.04" height="71.11" transform="translate(-3.15 172.35) rotate(-39.59)"/>
        <rect class="cls-1" x="236.2" y="53.89" width="3.26" height="73.32" transform="translate(-3.15 172.35) rotate(-39.59)"/>
      </g>
      <g>
        <rect class="cls-1" x="128.92" y="70.34" width="1.04" height="52.65" transform="translate(-32.1 94.7) rotate(-36.05)"/>
        <polygon class="cls-1" points="144.27 119.8 111.98 75.45 114.61 73.53 146.9 117.89 144.27 119.8"/>
      </g>
      <g>
        <rect class="cls-1" x="74.93" y="77.56" width="39.2" height="1.04" transform="translate(-9.84 13.75) rotate(-7.91)"/>
        <rect class="cls-1" x="73.83" y="76.45" width="41.41" height="3.25" transform="translate(-9.88 13.81) rotate(-7.94)"/>
      </g>
      <g>
        <rect class="cls-1" x="109.51" y="59.81" width="1.04" height="79.1" transform="translate(-29.39 149.77) rotate(-61.96)"/>
        <rect class="cls-1" x="108.4" y="58.71" width="3.26" height="81.31" transform="translate(-29.39 149.77) rotate(-61.96)"/>
      </g>
      <g>
        <rect class="cls-1" x="57.63" y="62.1" width="1.04" height="34.09" transform="translate(-26.18 129.49) rotate(-84.53)"/>
        <rect class="cls-1" x="56.53" y="61" width="3.25" height="36.3" transform="translate(-26.17 129.5) rotate(-84.54)"/>
      </g>
      <g>
        <rect class="cls-1" x="39.7" y="69.82" width="36.29" height="1.04" transform="translate(-23.14 28.68) rotate(-23.34)"/>
        <rect class="cls-1" x="38.6" y="68.71" width="38.5" height="3.26" transform="translate(-23.16 28.73) rotate(-23.38)"/>
      </g>
      <g>
        <rect class="cls-1" x="74.29" y="63.15" width="1.04" height="17.63" transform="translate(-2.45 2.63) rotate(-1.98)"/>
        <rect class="cls-1" x="73.19" y="62.04" width="3.25" height="19.84" transform="translate(-2.45 2.64) rotate(-1.99)"/>
      </g>
      <g>
        <rect class="cls-1" x="93.71" y="48.62" width="1.04" height="41.29" transform="translate(.16 138.76) rotate(-72.77)"/>
        <rect class="cls-1" x="92.6" y="47.52" width="3.26" height="43.5" transform="translate(.16 138.75) rotate(-72.77)"/>
      </g>
      <g>
        <rect class="cls-1" x="109.2" y="45.94" width="1.04" height="89.23" transform="translate(-29.13 121.54) rotate(-52.11)"/>
        <rect class="cls-1" x="108.09" y="44.83" width="3.26" height="91.45" transform="translate(-29.13 121.54) rotate(-52.11)"/>
      </g>
      <g>
        <rect class="cls-1" x="23.11" y="82.41" width="59.01" height="1.04" transform="translate(-42.03 56.7) rotate(-42.12)"/>
        <rect class="cls-1" x="22" y="81.3" width="61.22" height="3.26" transform="translate(-42.01 56.62) rotate(-42.07)"/>
      </g>
      <g>
        <rect class="cls-1" x="22.32" y="89.59" width="27.27" height="1.04" transform="translate(-61.06 88.66) rotate(-67.39)"/>
        <rect class="cls-1" x="21.21" y="88.49" width="29.48" height="3.26" transform="translate(-61.06 88.72) rotate(-67.43)"/>
      </g>
      <g>
        <rect class="cls-1" x="28.16" y="91.22" width="49.52" height="1.04" transform="translate(-35.19 32.98) rotate(-26.32)"/>
        <rect class="cls-1" x="27.05" y="90.11" width="51.74" height="3.26" transform="translate(-35.21 33.01) rotate(-26.34)"/>
      </g>
      <g>
        <polygon class="cls-1" points="30.88 103.2 30.55 102.21 113.78 74.89 114.11 75.88 30.88 103.2"/>
        <polygon class="cls-1" points="30.18 104.6 29.16 101.5 30.21 101.16 114.49 73.49 115.51 76.58 114.45 76.93 30.18 104.6"/>
      </g>
      <g>
        <rect class="cls-1" x="22.29" y="109.81" width="15.32" height="1.04" transform="translate(-82.81 129.16) rotate(-84.29)"/>
        <rect class="cls-1" x="21.19" y="108.7" width="17.54" height="3.26" transform="translate(-82.8 129.22) rotate(-84.32)"/>
      </g>
      <g>
        <rect class="cls-1" x="16.29" y="90.03" width="71.11" height="1.04" transform="translate(-50.99 72.85) rotate(-50.44)"/>
        <rect class="cls-1" x="15.19" y="88.92" width="73.32" height="3.26" transform="translate(-50.98 72.81) rotate(-50.41)"/>
      </g>
      <g>
        <rect class="cls-1" x="103.13" y="138.71" width="52.65" height="1.04" transform="translate(-59.28 162.03) rotate(-53.97)"/>
        <rect class="cls-1" x="102.02" y="137.6" width="54.87" height="3.26" transform="translate(-59.32 161.74) rotate(-53.88)"/>
      </g>
      <g>
        <rect class="cls-1" x="94.03" y="138.22" width="1.04" height="39.2" transform="translate(-74.77 229.77) rotate(-82.1)"/>
        <rect class="cls-1" x="92.92" y="137.11" width="3.26" height="41.41" transform="translate(-74.77 229.77) rotate(-82.1)"/>
      </g>
      <g>
        <rect class="cls-1" x="70.5" y="136.01" width="79.1" height="1.04" transform="translate(-51.24 67.71) rotate(-28.02)"/>
        <rect class="cls-1" x="69.39" y="134.9" width="81.31" height="3.26" transform="translate(-51.23 67.68) rotate(-28.01)"/>
      </g>
      <g>
        <rect class="cls-1" x="41.13" y="156.23" width="34.09" height="1.04" transform="translate(-14.61 6.23) rotate(-5.44)"/>
        <rect class="cls-1" x="40.02" y="155.12" width="36.3" height="3.25" transform="translate(-14.52 6.18) rotate(-5.41)"/>
      </g>
      <g>
        <rect class="cls-1" x="57.35" y="147.41" width="1.04" height="36.29" transform="translate(-117.07 153.14) rotate(-66.67)"/>
        <rect class="cls-1" x="56.24" y="146.3" width="3.26" height="38.5" transform="translate(-117.07 153.13) rotate(-66.67)"/>
      </g>
      <g>
        <rect class="cls-1" x="66.02" y="163.41" width="17.63" height="1.04" transform="translate(-91.58 233.08) rotate(-88.03)"/>
        <rect class="cls-1" x="64.91" y="162.3" width="19.84" height="3.25" transform="translate(-91.63 232.95) rotate(-87.98)"/>
      </g>
      <g>
        <rect class="cls-1" x="73.6" y="166.1" width="41.29" height="1.04" transform="translate(-45.19 35.46) rotate(-17.26)"/>
        <rect class="cls-1" x="72.49" y="165" width="43.5" height="3.26" transform="translate(-45.21 35.49) rotate(-17.27)"/>
      </g>
      <g>
        <rect class="cls-1" x="65.12" y="144.82" width="89.23" height="1.04" transform="translate(-66.11 97.99) rotate(-37.88)"/>
        <rect class="cls-1" x="64.02" y="143.71" width="91.45" height="3.26" transform="translate(-66.08 97.85) rotate(-37.83)"/>
      </g>
      <g>
        <rect class="cls-1" x="52.11" y="123.46" width="1.04" height="59.01" transform="translate(-96.16 89.5) rotate(-47.91)"/>
        <rect class="cls-1" x="51" y="122.35" width="3.26" height="61.22" transform="translate(-96.16 89.5) rotate(-47.91)"/>
      </g>
      <g>
        <rect class="cls-1" x="35.45" y="132.14" width="1.04" height="27.27" transform="translate(-53.21 24.98) rotate(-22.58)"/>
        <rect class="cls-1" x="34.34" y="131.04" width="3.26" height="29.48" transform="translate(-53.21 24.98) rotate(-22.58)"/>
      </g>
      <g>
        <rect class="cls-1" x="52.42" y="119.39" width="1.04" height="49.52" transform="translate(-99.75 127.77) rotate(-63.71)"/>
        <rect class="cls-1" x="51.31" y="118.29" width="3.26" height="51.74" transform="translate(-99.75 127.77) rotate(-63.71)"/>
      </g>
      <g>
        <polygon class="cls-1" points="113.8 161.01 30.57 133.68 30.9 132.69 114.13 160.02 113.8 161.01"/>
        <rect class="cls-1" x="70.72" y="101.94" width="3.26" height="89.81" transform="translate(-89.74 169.78) rotate(-71.82)"/>
      </g>
      <g>
        <rect class="cls-1" x="29.45" y="117.9" width="1.04" height="15.32" transform="translate(-12.39 3.62) rotate(-5.73)"/>
        <rect class="cls-1" x="28.34" y="116.8" width="3.26" height="17.54" transform="translate(-12.38 3.62) rotate(-5.73)"/>
      </g>
      <g>
        <rect class="cls-1" x="51.35" y="109.79" width="1.04" height="71.11" transform="translate(-80.73 66.4) rotate(-39.59)"/>
        <rect class="cls-1" x="50.24" y="108.68" width="3.26" height="73.32" transform="translate(-80.73 66.4) rotate(-39.59)"/>
      </g>
    </g>
    <g>
      <path class="cls-1" d="M147.89,117.94c0,1.73-1.4,3.13-3.13,3.13s-3.13-1.4-3.13-3.13,1.4-3.13,3.13-3.13,3.13,1.4,3.13,3.13Z"/>
      <path class="cls-1" d="M144.76,122.18c-2.34,0-4.24-1.9-4.24-4.23s1.9-4.24,4.24-4.24,4.24,1.9,4.24,4.24-1.9,4.23-4.24,4.23ZM144.76,115.92c-1.11,0-2.02.91-2.02,2.02s.91,2.02,2.02,2.02,2.02-.91,2.02-2.02-.91-2.02-2.02-2.02Z"/>
    </g>
    <g>
      <path class="cls-1" d="M178.88,160.51c0,1.73-1.4,3.13-3.13,3.13s-3.13-1.4-3.13-3.13,1.4-3.13,3.13-3.13,3.13,1.4,3.13,3.13Z"/>
      <path class="cls-1" d="M175.75,164.75c-2.33,0-4.23-1.9-4.23-4.24s1.9-4.24,4.23-4.24,4.24,1.9,4.24,4.24-1.9,4.24-4.24,4.24ZM175.75,158.49c-1.11,0-2.02.91-2.02,2.02s.91,2.02,2.02,2.02,2.02-.91,2.02-2.02-.91-2.02-2.02-2.02Z"/>
    </g>
    <g>
      <path class="cls-1" d="M178.88,160.51c0,1.73-1.4,3.13-3.13,3.13s-3.13-1.4-3.13-3.13,1.4-3.13,3.13-3.13,3.13,1.4,3.13,3.13Z"/>
      <path class="cls-1" d="M175.75,164.75c-2.33,0-4.23-1.9-4.23-4.24s1.9-4.24,4.23-4.24,4.24,1.9,4.24,4.24-1.9,4.24-4.24,4.24ZM175.75,158.49c-1.11,0-2.02.91-2.02,2.02s.91,2.02,2.02,2.02,2.02-.91,2.02-2.02-.91-2.02-2.02-2.02Z"/>
    </g>
    <g>
      <path class="cls-1" d="M217.7,155.12c0,1.73-1.4,3.13-3.13,3.13s-3.13-1.4-3.13-3.13,1.4-3.13,3.13-3.13,3.13,1.4,3.13,3.13Z"/>
      <path class="cls-1" d="M214.58,159.36c-2.34,0-4.24-1.9-4.24-4.23s1.9-4.24,4.24-4.24,4.23,1.9,4.23,4.24-1.9,4.23-4.23,4.23ZM214.58,153.1c-1.11,0-2.02.91-2.02,2.02s.91,2.02,2.02,2.02,2.02-.91,2.02-2.02-.91-2.02-2.02-2.02Z"/>
    </g>
    <g>
      <path class="cls-1" d="M217.7,155.12c0,1.73-1.4,3.13-3.13,3.13s-3.13-1.4-3.13-3.13,1.4-3.13,3.13-3.13,3.13,1.4,3.13,3.13Z"/>
      <path class="cls-1" d="M214.58,159.36c-2.34,0-4.24-1.9-4.24-4.23s1.9-4.24,4.24-4.24,4.23,1.9,4.23,4.24-1.9,4.23-4.23,4.23ZM214.58,153.1c-1.11,0-2.02.91-2.02,2.02s.91,2.02,2.02,2.02,2.02-.91,2.02-2.02-.91-2.02-2.02-2.02Z"/>
    </g>
    <g>
      <path class="cls-1" d="M217.7,155.12c0,1.73-1.4,3.13-3.13,3.13s-3.13-1.4-3.13-3.13,1.4-3.13,3.13-3.13,3.13,1.4,3.13,3.13Z"/>
      <path class="cls-1" d="M214.58,159.36c-2.34,0-4.24-1.9-4.24-4.23s1.9-4.24,4.24-4.24,4.23,1.9,4.23,4.24-1.9,4.23-4.23,4.23ZM214.58,153.1c-1.11,0-2.02.91-2.02,2.02s.91,2.02,2.02,2.02,2.02-.91,2.02-2.02-.91-2.02-2.02-2.02Z"/>
    </g>
    <g>
      <path class="cls-1" d="M251.63,158.37c0,1.73-1.4,3.13-3.13,3.13s-3.13-1.4-3.13-3.13,1.4-3.13,3.13-3.13,3.13,1.4,3.13,3.13Z"/>
      <path class="cls-1" d="M248.51,162.6c-2.34,0-4.23-1.9-4.23-4.23s1.9-4.23,4.23-4.23,4.23,1.9,4.23,4.23-1.9,4.23-4.23,4.23ZM248.51,156.35c-1.11,0-2.02.91-2.02,2.02s.91,2.02,2.02,2.02,2.02-.91,2.02-2.02-.91-2.02-2.02-2.02Z"/>
    </g>
    <g>
      <path class="cls-1" d="M251.63,158.37c0,1.73-1.4,3.13-3.13,3.13s-3.13-1.4-3.13-3.13,1.4-3.13,3.13-3.13,3.13,1.4,3.13,3.13Z"/>
      <path class="cls-1" d="M248.51,162.6c-2.34,0-4.23-1.9-4.23-4.23s1.9-4.23,4.23-4.23,4.23,1.9,4.23,4.23-1.9,4.23-4.23,4.23ZM248.51,156.35c-1.11,0-2.02.91-2.02,2.02s.91,2.02,2.02,2.02,2.02-.91,2.02-2.02-.91-2.02-2.02-2.02Z"/>
    </g>
    <g>
      <path class="cls-1" d="M218.31,172.74c0,1.73-1.4,3.13-3.13,3.13s-3.13-1.4-3.13-3.13,1.4-3.13,3.13-3.13,3.13,1.4,3.13,3.13Z"/>
      <path class="cls-1" d="M215.19,176.97c-2.34,0-4.24-1.9-4.24-4.23s1.9-4.24,4.24-4.24,4.23,1.9,4.23,4.24-1.9,4.23-4.23,4.23ZM215.19,170.72c-1.11,0-2.02.91-2.02,2.02s.91,2.02,2.02,2.02,2.02-.91,2.02-2.02-.91-2.02-2.02-2.02Z"/>
    </g>
    <g>
      <path class="cls-1" d="M217.7,155.12c0,1.73-1.4,3.13-3.13,3.13s-3.13-1.4-3.13-3.13,1.4-3.13,3.13-3.13,3.13,1.4,3.13,3.13Z"/>
      <path class="cls-1" d="M214.58,159.36c-2.34,0-4.24-1.9-4.24-4.23s1.9-4.24,4.24-4.24,4.23,1.9,4.23,4.24-1.9,4.23-4.23,4.23ZM214.58,153.1c-1.11,0-2.02.91-2.02,2.02s.91,2.02,2.02,2.02,2.02-.91,2.02-2.02-.91-2.02-2.02-2.02Z"/>
    </g>
    <g>
      <path class="cls-1" d="M218.31,172.74c0,1.73-1.4,3.13-3.13,3.13s-3.13-1.4-3.13-3.13,1.4-3.13,3.13-3.13,3.13,1.4,3.13,3.13Z"/>
      <path class="cls-1" d="M215.19,176.97c-2.34,0-4.24-1.9-4.24-4.23s1.9-4.24,4.24-4.24,4.23,1.9,4.23,4.24-1.9,4.23-4.23,4.23ZM215.19,170.72c-1.11,0-2.02.91-2.02,2.02s.91,2.02,2.02,2.02,2.02-.91,2.02-2.02-.91-2.02-2.02-2.02Z"/>
    </g>
    <g>
      <path class="cls-1" d="M178.88,160.51c0,1.73-1.4,3.13-3.13,3.13s-3.13-1.4-3.13-3.13,1.4-3.13,3.13-3.13,3.13,1.4,3.13,3.13Z"/>
      <path class="cls-1" d="M175.75,164.75c-2.33,0-4.23-1.9-4.23-4.24s1.9-4.24,4.23-4.24,4.24,1.9,4.24,4.24-1.9,4.24-4.24,4.24ZM175.75,158.49c-1.11,0-2.02.91-2.02,2.02s.91,2.02,2.02,2.02,2.02-.91,2.02-2.02-.91-2.02-2.02-2.02Z"/>
    </g>
    <g>
      <path class="cls-1" d="M218.31,172.74c0,1.73-1.4,3.13-3.13,3.13s-3.13-1.4-3.13-3.13,1.4-3.13,3.13-3.13,3.13,1.4,3.13,3.13Z"/>
      <path class="cls-1" d="M215.19,176.97c-2.34,0-4.24-1.9-4.24-4.23s1.9-4.24,4.24-4.24,4.23,1.9,4.23,4.24-1.9,4.23-4.23,4.23ZM215.19,170.72c-1.11,0-2.02.91-2.02,2.02s.91,2.02,2.02,2.02,2.02-.91,2.02-2.02-.91-2.02-2.02-2.02Z"/>
    </g>
    <g>
      <path class="cls-1" d="M218.31,172.74c0,1.73-1.4,3.13-3.13,3.13s-3.13-1.4-3.13-3.13,1.4-3.13,3.13-3.13,3.13,1.4,3.13,3.13Z"/>
      <path class="cls-1" d="M215.19,176.97c-2.34,0-4.24-1.9-4.24-4.23s1.9-4.24,4.24-4.24,4.23,1.9,4.23,4.24-1.9,4.23-4.23,4.23ZM215.19,170.72c-1.11,0-2.02.91-2.02,2.02s.91,2.02,2.02,2.02,2.02-.91,2.02-2.02-.91-2.02-2.02-2.02Z"/>
    </g>
    <g>
      <path class="cls-1" d="M218.31,172.74c0,1.73-1.4,3.13-3.13,3.13s-3.13-1.4-3.13-3.13,1.4-3.13,3.13-3.13,3.13,1.4,3.13,3.13Z"/>
      <path class="cls-1" d="M215.19,176.97c-2.34,0-4.24-1.9-4.24-4.23s1.9-4.24,4.24-4.24,4.23,1.9,4.23,4.24-1.9,4.23-4.23,4.23ZM215.19,170.72c-1.11,0-2.02.91-2.02,2.02s.91,2.02,2.02,2.02,2.02-.91,2.02-2.02-.91-2.02-2.02-2.02Z"/>
    </g>
    <g>
      <path class="cls-1" d="M262.1,133.19c0,1.73-1.4,3.13-3.13,3.13s-3.13-1.4-3.13-3.13,1.4-3.13,3.13-3.13,3.13,1.4,3.13,3.13Z"/>
      <path class="cls-1" d="M258.98,137.42c-2.34,0-4.23-1.9-4.23-4.24s1.9-4.23,4.23-4.23,4.23,1.9,4.23,4.23-1.9,4.24-4.23,4.24ZM258.98,131.17c-1.11,0-2.02.91-2.02,2.02s.91,2.02,2.02,2.02,2.02-.91,2.02-2.02-.91-2.02-2.02-2.02Z"/>
    </g>
    <g>
      <path class="cls-1" d="M251.63,158.37c0,1.73-1.4,3.13-3.13,3.13s-3.13-1.4-3.13-3.13,1.4-3.13,3.13-3.13,3.13,1.4,3.13,3.13Z"/>
      <path class="cls-1" d="M248.51,162.6c-2.34,0-4.23-1.9-4.23-4.23s1.9-4.23,4.23-4.23,4.23,1.9,4.23,4.23-1.9,4.23-4.23,4.23ZM248.51,156.35c-1.11,0-2.02.91-2.02,2.02s.91,2.02,2.02,2.02,2.02-.91,2.02-2.02-.91-2.02-2.02-2.02Z"/>
    </g>
    <g>
      <path class="cls-1" d="M262.1,133.19c0,1.73-1.4,3.13-3.13,3.13s-3.13-1.4-3.13-3.13,1.4-3.13,3.13-3.13,3.13,1.4,3.13,3.13Z"/>
      <path class="cls-1" d="M258.98,137.42c-2.34,0-4.23-1.9-4.23-4.24s1.9-4.23,4.23-4.23,4.23,1.9,4.23,4.23-1.9,4.24-4.23,4.24ZM258.98,131.17c-1.11,0-2.02.91-2.02,2.02s.91,2.02,2.02,2.02,2.02-.91,2.02-2.02-.91-2.02-2.02-2.02Z"/>
    </g>
    <g>
      <path class="cls-1" d="M217.7,155.12c0,1.73-1.4,3.13-3.13,3.13s-3.13-1.4-3.13-3.13,1.4-3.13,3.13-3.13,3.13,1.4,3.13,3.13Z"/>
      <path class="cls-1" d="M214.58,159.36c-2.34,0-4.24-1.9-4.24-4.23s1.9-4.24,4.24-4.24,4.23,1.9,4.23,4.24-1.9,4.23-4.23,4.23ZM214.58,153.1c-1.11,0-2.02.91-2.02,2.02s.91,2.02,2.02,2.02,2.02-.91,2.02-2.02-.91-2.02-2.02-2.02Z"/>
    </g>
    <g>
      <path class="cls-1" d="M262.1,133.19c0,1.73-1.4,3.13-3.13,3.13s-3.13-1.4-3.13-3.13,1.4-3.13,3.13-3.13,3.13,1.4,3.13,3.13Z"/>
      <path class="cls-1" d="M258.98,137.42c-2.34,0-4.23-1.9-4.23-4.24s1.9-4.23,4.23-4.23,4.23,1.9,4.23,4.23-1.9,4.24-4.23,4.24ZM258.98,131.17c-1.11,0-2.02.91-2.02,2.02s.91,2.02,2.02,2.02,2.02-.91,2.02-2.02-.91-2.02-2.02-2.02Z"/>
    </g>
    <g>
      <path class="cls-1" d="M178.88,160.51c0,1.73-1.4,3.13-3.13,3.13s-3.13-1.4-3.13-3.13,1.4-3.13,3.13-3.13,3.13,1.4,3.13,3.13Z"/>
      <path class="cls-1" d="M175.75,164.75c-2.33,0-4.23-1.9-4.23-4.24s1.9-4.24,4.23-4.24,4.24,1.9,4.24,4.24-1.9,4.24-4.24,4.24ZM175.75,158.49c-1.11,0-2.02.91-2.02,2.02s.91,2.02,2.02,2.02,2.02-.91,2.02-2.02-.91-2.02-2.02-2.02Z"/>
    </g>
    <g>
      <path class="cls-1" d="M262.1,133.19c0,1.73-1.4,3.13-3.13,3.13s-3.13-1.4-3.13-3.13,1.4-3.13,3.13-3.13,3.13,1.4,3.13,3.13Z"/>
      <path class="cls-1" d="M258.98,137.42c-2.34,0-4.23-1.9-4.23-4.24s1.9-4.23,4.23-4.23,4.23,1.9,4.23,4.23-1.9,4.24-4.23,4.24ZM258.98,131.17c-1.11,0-2.02.91-2.02,2.02s.91,2.02,2.02,2.02,2.02-.91,2.02-2.02-.91-2.02-2.02-2.02Z"/>
    </g>
    <g>
      <path class="cls-1" d="M262.1,133.19c0,1.73-1.4,3.13-3.13,3.13s-3.13-1.4-3.13-3.13,1.4-3.13,3.13-3.13,3.13,1.4,3.13,3.13Z"/>
      <path class="cls-1" d="M258.98,137.42c-2.34,0-4.23-1.9-4.23-4.24s1.9-4.23,4.23-4.23,4.23,1.9,4.23,4.23-1.9,4.24-4.23,4.24ZM258.98,131.17c-1.11,0-2.02.91-2.02,2.02s.91,2.02,2.02,2.02,2.02-.91,2.02-2.02-.91-2.02-2.02-2.02Z"/>
    </g>
    <g>
      <path class="cls-1" d="M263.64,117.94c0,1.73-1.4,3.13-3.13,3.13s-3.13-1.4-3.13-3.13,1.4-3.13,3.13-3.13,3.13,1.4,3.13,3.13Z"/>
      <path class="cls-1" d="M260.51,122.18c-2.34,0-4.23-1.9-4.23-4.23s1.9-4.23,4.23-4.23,4.23,1.9,4.23,4.23-1.9,4.23-4.23,4.23ZM260.51,115.92c-1.11,0-2.02.91-2.02,2.02s.91,2.02,2.02,2.02,2.02-.91,2.02-2.02-.91-2.02-2.02-2.02Z"/>
    </g>
    <g>
      <path class="cls-1" d="M218.31,172.74c0,1.73-1.4,3.13-3.13,3.13s-3.13-1.4-3.13-3.13,1.4-3.13,3.13-3.13,3.13,1.4,3.13,3.13Z"/>
      <path class="cls-1" d="M215.19,176.97c-2.34,0-4.24-1.9-4.24-4.23s1.9-4.24,4.24-4.24,4.23,1.9,4.23,4.24-1.9,4.23-4.23,4.23ZM215.19,170.72c-1.11,0-2.02.91-2.02,2.02s.91,2.02,2.02,2.02,2.02-.91,2.02-2.02-.91-2.02-2.02-2.02Z"/>
    </g>
    <g>
      <path class="cls-1" d="M263.64,117.94c0,1.73-1.4,3.13-3.13,3.13s-3.13-1.4-3.13-3.13,1.4-3.13,3.13-3.13,3.13,1.4,3.13,3.13Z"/>
      <path class="cls-1" d="M260.51,122.18c-2.34,0-4.23-1.9-4.23-4.23s1.9-4.23,4.23-4.23,4.23,1.9,4.23,4.23-1.9,4.23-4.23,4.23ZM260.51,115.92c-1.11,0-2.02.91-2.02,2.02s.91,2.02,2.02,2.02,2.02-.91,2.02-2.02-.91-2.02-2.02-2.02Z"/>
    </g>
    <g>
      <path class="cls-1" d="M178.86,75.38c0,1.73-1.4,3.13-3.13,3.13s-3.13-1.4-3.13-3.13,1.4-3.13,3.13-3.13,3.13,1.4,3.13,3.13Z"/>
      <path class="cls-1" d="M175.73,79.62c-2.33,0-4.23-1.9-4.23-4.24s1.9-4.23,4.23-4.23,4.24,1.9,4.24,4.23-1.9,4.24-4.24,4.24ZM175.73,73.36c-1.11,0-2.02.91-2.02,2.02s.91,2.02,2.02,2.02,2.02-.91,2.02-2.02-.91-2.02-2.02-2.02Z"/>
    </g>
    <g>
      <path class="cls-1" d="M178.86,75.38c0,1.73-1.4,3.13-3.13,3.13s-3.13-1.4-3.13-3.13,1.4-3.13,3.13-3.13,3.13,1.4,3.13,3.13Z"/>
      <path class="cls-1" d="M175.73,79.62c-2.33,0-4.23-1.9-4.23-4.24s1.9-4.23,4.23-4.23,4.24,1.9,4.24,4.23-1.9,4.24-4.24,4.24ZM175.73,73.36c-1.11,0-2.02.91-2.02,2.02s.91,2.02,2.02,2.02,2.02-.91,2.02-2.02-.91-2.02-2.02-2.02Z"/>
    </g>
    <g>
      <path class="cls-1" d="M217.68,80.77c0,1.73-1.4,3.13-3.13,3.13s-3.13-1.4-3.13-3.13,1.4-3.13,3.13-3.13,3.13,1.4,3.13,3.13Z"/>
      <path class="cls-1" d="M214.56,85.01c-2.34,0-4.24-1.9-4.24-4.24s1.9-4.23,4.24-4.23,4.23,1.9,4.23,4.23-1.9,4.24-4.23,4.24ZM214.56,78.75c-1.11,0-2.02.91-2.02,2.02s.91,2.02,2.02,2.02,2.02-.91,2.02-2.02-.91-2.02-2.02-2.02Z"/>
    </g>
    <g>
      <path class="cls-1" d="M217.68,80.77c0,1.73-1.4,3.13-3.13,3.13s-3.13-1.4-3.13-3.13,1.4-3.13,3.13-3.13,3.13,1.4,3.13,3.13Z"/>
      <path class="cls-1" d="M214.56,85.01c-2.34,0-4.24-1.9-4.24-4.24s1.9-4.23,4.24-4.23,4.23,1.9,4.23,4.23-1.9,4.24-4.23,4.24ZM214.56,78.75c-1.11,0-2.02.91-2.02,2.02s.91,2.02,2.02,2.02,2.02-.91,2.02-2.02-.91-2.02-2.02-2.02Z"/>
    </g>
    <g>
      <path class="cls-1" d="M217.68,80.77c0,1.73-1.4,3.13-3.13,3.13s-3.13-1.4-3.13-3.13,1.4-3.13,3.13-3.13,3.13,1.4,3.13,3.13Z"/>
      <path class="cls-1" d="M214.56,85.01c-2.34,0-4.24-1.9-4.24-4.24s1.9-4.23,4.24-4.23,4.23,1.9,4.23,4.23-1.9,4.24-4.23,4.24ZM214.56,78.75c-1.11,0-2.02.91-2.02,2.02s.91,2.02,2.02,2.02,2.02-.91,2.02-2.02-.91-2.02-2.02-2.02Z"/>
    </g>
    <g>
      <path class="cls-1" d="M251.62,77.52c0,1.73-1.4,3.13-3.13,3.13s-3.13-1.4-3.13-3.13,1.4-3.13,3.13-3.13,3.13,1.4,3.13,3.13Z"/>
      <path class="cls-1" d="M248.49,81.76c-2.34,0-4.23-1.9-4.23-4.23s1.9-4.23,4.23-4.23,4.23,1.9,4.23,4.23-1.9,4.23-4.23,4.23ZM248.49,75.5c-1.11,0-2.02.91-2.02,2.02s.91,2.02,2.02,2.02,2.02-.91,2.02-2.02-.91-2.02-2.02-2.02Z"/>
    </g>
    <g>
      <path class="cls-1" d="M251.62,77.52c0,1.73-1.4,3.13-3.13,3.13s-3.13-1.4-3.13-3.13,1.4-3.13,3.13-3.13,3.13,1.4,3.13,3.13Z"/>
      <path class="cls-1" d="M248.49,81.76c-2.34,0-4.23-1.9-4.23-4.23s1.9-4.23,4.23-4.23,4.23,1.9,4.23,4.23-1.9,4.23-4.23,4.23ZM248.49,75.5c-1.11,0-2.02.91-2.02,2.02s.91,2.02,2.02,2.02,2.02-.91,2.02-2.02-.91-2.02-2.02-2.02Z"/>
    </g>
    <g>
      <path class="cls-1" d="M218.3,63.16c0,1.73-1.4,3.13-3.13,3.13s-3.13-1.4-3.13-3.13,1.4-3.13,3.13-3.13,3.13,1.4,3.13,3.13Z"/>
      <path class="cls-1" d="M215.17,67.39c-2.34,0-4.24-1.9-4.24-4.23s1.9-4.24,4.24-4.24,4.23,1.9,4.23,4.24-1.9,4.23-4.23,4.23ZM215.17,61.13c-1.11,0-2.02.91-2.02,2.02s.91,2.02,2.02,2.02,2.02-.91,2.02-2.02-.91-2.02-2.02-2.02Z"/>
    </g>
    <g>
      <path class="cls-1" d="M217.68,80.77c0,1.73-1.4,3.13-3.13,3.13s-3.13-1.4-3.13-3.13,1.4-3.13,3.13-3.13,3.13,1.4,3.13,3.13Z"/>
      <path class="cls-1" d="M214.56,85.01c-2.34,0-4.24-1.9-4.24-4.24s1.9-4.23,4.24-4.23,4.23,1.9,4.23,4.23-1.9,4.24-4.23,4.24ZM214.56,78.75c-1.11,0-2.02.91-2.02,2.02s.91,2.02,2.02,2.02,2.02-.91,2.02-2.02-.91-2.02-2.02-2.02Z"/>
    </g>
    <g>
      <path class="cls-1" d="M218.3,63.16c0,1.73-1.4,3.13-3.13,3.13s-3.13-1.4-3.13-3.13,1.4-3.13,3.13-3.13,3.13,1.4,3.13,3.13Z"/>
      <path class="cls-1" d="M215.17,67.39c-2.34,0-4.24-1.9-4.24-4.23s1.9-4.24,4.24-4.24,4.23,1.9,4.23,4.24-1.9,4.23-4.23,4.23ZM215.17,61.13c-1.11,0-2.02.91-2.02,2.02s.91,2.02,2.02,2.02,2.02-.91,2.02-2.02-.91-2.02-2.02-2.02Z"/>
    </g>
    <g>
      <path class="cls-1" d="M178.86,75.38c0,1.73-1.4,3.13-3.13,3.13s-3.13-1.4-3.13-3.13,1.4-3.13,3.13-3.13,3.13,1.4,3.13,3.13Z"/>
      <path class="cls-1" d="M175.73,79.62c-2.33,0-4.23-1.9-4.23-4.24s1.9-4.23,4.23-4.23,4.24,1.9,4.24,4.23-1.9,4.24-4.24,4.24ZM175.73,73.36c-1.11,0-2.02.91-2.02,2.02s.91,2.02,2.02,2.02,2.02-.91,2.02-2.02-.91-2.02-2.02-2.02Z"/>
    </g>
    <g>
      <path class="cls-1" d="M218.3,63.16c0,1.73-1.4,3.13-3.13,3.13s-3.13-1.4-3.13-3.13,1.4-3.13,3.13-3.13,3.13,1.4,3.13,3.13Z"/>
      <path class="cls-1" d="M215.17,67.39c-2.34,0-4.24-1.9-4.24-4.23s1.9-4.24,4.24-4.24,4.23,1.9,4.23,4.24-1.9,4.23-4.23,4.23ZM215.17,61.13c-1.11,0-2.02.91-2.02,2.02s.91,2.02,2.02,2.02,2.02-.91,2.02-2.02-.91-2.02-2.02-2.02Z"/>
    </g>
    <g>
      <path class="cls-1" d="M218.3,63.16c0,1.73-1.4,3.13-3.13,3.13s-3.13-1.4-3.13-3.13,1.4-3.13,3.13-3.13,3.13,1.4,3.13,3.13Z"/>
      <path class="cls-1" d="M215.17,67.39c-2.34,0-4.24-1.9-4.24-4.23s1.9-4.24,4.24-4.24,4.23,1.9,4.23,4.24-1.9,4.23-4.23,4.23ZM215.17,61.13c-1.11,0-2.02.91-2.02,2.02s.91,2.02,2.02,2.02,2.02-.91,2.02-2.02-.91-2.02-2.02-2.02Z"/>
    </g>
    <g>
      <path class="cls-1" d="M218.3,63.16c0,1.73-1.4,3.13-3.13,3.13s-3.13-1.4-3.13-3.13,1.4-3.13,3.13-3.13,3.13,1.4,3.13,3.13Z"/>
      <path class="cls-1" d="M215.17,67.39c-2.34,0-4.24-1.9-4.24-4.23s1.9-4.24,4.24-4.24,4.23,1.9,4.23,4.24-1.9,4.23-4.23,4.23ZM215.17,61.13c-1.11,0-2.02.91-2.02,2.02s.91,2.02,2.02,2.02,2.02-.91,2.02-2.02-.91-2.02-2.02-2.02Z"/>
    </g>
    <g>
      <path class="cls-1" d="M262.09,102.71c0,1.73-1.4,3.13-3.13,3.13s-3.13-1.4-3.13-3.13,1.4-3.13,3.13-3.13,3.13,1.4,3.13,3.13Z"/>
      <path class="cls-1" d="M258.96,106.94c-2.33,0-4.23-1.9-4.23-4.24s1.9-4.24,4.23-4.24,4.24,1.9,4.24,4.24-1.9,4.24-4.24,4.24ZM258.96,100.68c-1.11,0-2.02.91-2.02,2.02s.91,2.02,2.02,2.02,2.02-.91,2.02-2.02-.91-2.02-2.02-2.02Z"/>
    </g>
    <g>
      <path class="cls-1" d="M251.62,77.52c0,1.73-1.4,3.13-3.13,3.13s-3.13-1.4-3.13-3.13,1.4-3.13,3.13-3.13,3.13,1.4,3.13,3.13Z"/>
      <path class="cls-1" d="M248.49,81.76c-2.34,0-4.23-1.9-4.23-4.23s1.9-4.23,4.23-4.23,4.23,1.9,4.23,4.23-1.9,4.23-4.23,4.23ZM248.49,75.5c-1.11,0-2.02.91-2.02,2.02s.91,2.02,2.02,2.02,2.02-.91,2.02-2.02-.91-2.02-2.02-2.02Z"/>
    </g>
    <g>
      <path class="cls-1" d="M262.09,102.71c0,1.73-1.4,3.13-3.13,3.13s-3.13-1.4-3.13-3.13,1.4-3.13,3.13-3.13,3.13,1.4,3.13,3.13Z"/>
      <path class="cls-1" d="M258.96,106.94c-2.33,0-4.23-1.9-4.23-4.24s1.9-4.24,4.23-4.24,4.24,1.9,4.24,4.24-1.9,4.24-4.24,4.24ZM258.96,100.68c-1.11,0-2.02.91-2.02,2.02s.91,2.02,2.02,2.02,2.02-.91,2.02-2.02-.91-2.02-2.02-2.02Z"/>
    </g>
    <g>
      <path class="cls-1" d="M217.68,80.77c0,1.73-1.4,3.13-3.13,3.13s-3.13-1.4-3.13-3.13,1.4-3.13,3.13-3.13,3.13,1.4,3.13,3.13Z"/>
      <path class="cls-1" d="M214.56,85.01c-2.34,0-4.24-1.9-4.24-4.24s1.9-4.23,4.24-4.23,4.23,1.9,4.23,4.23-1.9,4.24-4.23,4.24ZM214.56,78.75c-1.11,0-2.02.91-2.02,2.02s.91,2.02,2.02,2.02,2.02-.91,2.02-2.02-.91-2.02-2.02-2.02Z"/>
    </g>
    <g>
      <path class="cls-1" d="M262.09,102.71c0,1.73-1.4,3.13-3.13,3.13s-3.13-1.4-3.13-3.13,1.4-3.13,3.13-3.13,3.13,1.4,3.13,3.13Z"/>
      <path class="cls-1" d="M258.96,106.94c-2.33,0-4.23-1.9-4.23-4.24s1.9-4.24,4.23-4.24,4.24,1.9,4.24,4.24-1.9,4.24-4.24,4.24ZM258.96,100.68c-1.11,0-2.02.91-2.02,2.02s.91,2.02,2.02,2.02,2.02-.91,2.02-2.02-.91-2.02-2.02-2.02Z"/>
    </g>
    <g>
      <path class="cls-1" d="M178.86,75.38c0,1.73-1.4,3.13-3.13,3.13s-3.13-1.4-3.13-3.13,1.4-3.13,3.13-3.13,3.13,1.4,3.13,3.13Z"/>
      <path class="cls-1" d="M175.73,79.62c-2.33,0-4.23-1.9-4.23-4.24s1.9-4.23,4.23-4.23,4.24,1.9,4.24,4.23-1.9,4.24-4.24,4.24ZM175.73,73.36c-1.11,0-2.02.91-2.02,2.02s.91,2.02,2.02,2.02,2.02-.91,2.02-2.02-.91-2.02-2.02-2.02Z"/>
    </g>
    <g>
      <path class="cls-1" d="M262.09,102.71c0,1.73-1.4,3.13-3.13,3.13s-3.13-1.4-3.13-3.13,1.4-3.13,3.13-3.13,3.13,1.4,3.13,3.13Z"/>
      <path class="cls-1" d="M258.96,106.94c-2.33,0-4.23-1.9-4.23-4.24s1.9-4.24,4.23-4.24,4.24,1.9,4.24,4.24-1.9,4.24-4.24,4.24ZM258.96,100.68c-1.11,0-2.02.91-2.02,2.02s.91,2.02,2.02,2.02,2.02-.91,2.02-2.02-.91-2.02-2.02-2.02Z"/>
    </g>
    <g>
      <path class="cls-1" d="M262.09,102.71c0,1.73-1.4,3.13-3.13,3.13s-3.13-1.4-3.13-3.13,1.4-3.13,3.13-3.13,3.13,1.4,3.13,3.13Z"/>
      <path class="cls-1" d="M258.96,106.94c-2.33,0-4.23-1.9-4.23-4.24s1.9-4.24,4.23-4.24,4.24,1.9,4.24,4.24-1.9,4.24-4.24,4.24ZM258.96,100.68c-1.11,0-2.02.91-2.02,2.02s.91,2.02,2.02,2.02,2.02-.91,2.02-2.02-.91-2.02-2.02-2.02Z"/>
    </g>
    <g>
      <path class="cls-1" d="M263.61,117.95c0,1.73-1.4,3.13-3.13,3.13s-3.13-1.4-3.13-3.13,1.4-3.13,3.13-3.13,3.13,1.4,3.13,3.13Z"/>
      <path class="cls-1" d="M260.49,122.18c-2.33,0-4.23-1.9-4.23-4.23s1.9-4.23,4.23-4.23,4.23,1.9,4.23,4.23-1.9,4.23-4.23,4.23ZM260.49,115.93c-1.11,0-2.02.91-2.02,2.02s.91,2.02,2.02,2.02,2.02-.91,2.02-2.02-.91-2.02-2.02-2.02Z"/>
    </g>
    <g>
      <path class="cls-1" d="M218.3,63.16c0,1.73-1.4,3.13-3.13,3.13s-3.13-1.4-3.13-3.13,1.4-3.13,3.13-3.13,3.13,1.4,3.13,3.13Z"/>
      <path class="cls-1" d="M215.17,67.39c-2.34,0-4.24-1.9-4.24-4.23s1.9-4.24,4.24-4.24,4.23,1.9,4.23,4.24-1.9,4.23-4.23,4.23ZM215.17,61.13c-1.11,0-2.02.91-2.02,2.02s.91,2.02,2.02,2.02,2.02-.91,2.02-2.02-.91-2.02-2.02-2.02Z"/>
    </g>
    <g>
      <path class="cls-1" d="M263.61,117.95c0,1.73-1.4,3.13-3.13,3.13s-3.13-1.4-3.13-3.13,1.4-3.13,3.13-3.13,3.13,1.4,3.13,3.13Z"/>
      <path class="cls-1" d="M260.49,122.18c-2.33,0-4.23-1.9-4.23-4.23s1.9-4.23,4.23-4.23,4.23,1.9,4.23,4.23-1.9,4.23-4.23,4.23ZM260.49,115.93c-1.11,0-2.02.91-2.02,2.02s.91,2.02,2.02,2.02,2.02-.91,2.02-2.02-.91-2.02-2.02-2.02Z"/>
    </g>
    <g>
      <path class="cls-1" d="M117.07,75.38c0,1.73-1.4,3.13-3.13,3.13s-3.13-1.4-3.13-3.13,1.4-3.13,3.13-3.13,3.13,1.4,3.13,3.13Z"/>
      <path class="cls-1" d="M113.95,79.62c-2.34,0-4.24-1.9-4.24-4.24s1.9-4.23,4.24-4.23,4.23,1.9,4.23,4.23-1.9,4.24-4.23,4.24ZM113.95,73.36c-1.11,0-2.02.91-2.02,2.02s.91,2.02,2.02,2.02,2.02-.91,2.02-2.02-.91-2.02-2.02-2.02Z"/>
    </g>
    <g>
      <path class="cls-1" d="M117.07,75.38c0,1.73-1.4,3.13-3.13,3.13s-3.13-1.4-3.13-3.13,1.4-3.13,3.13-3.13,3.13,1.4,3.13,3.13Z"/>
      <path class="cls-1" d="M113.95,79.62c-2.34,0-4.24-1.9-4.24-4.24s1.9-4.23,4.24-4.23,4.23,1.9,4.23,4.23-1.9,4.24-4.23,4.24ZM113.95,73.36c-1.11,0-2.02.91-2.02,2.02s.91,2.02,2.02,2.02,2.02-.91,2.02-2.02-.91-2.02-2.02-2.02Z"/>
    </g>
    <g>
      <path class="cls-1" d="M78.25,80.77c0,1.73-1.4,3.13-3.13,3.13s-3.13-1.4-3.13-3.13,1.4-3.13,3.13-3.13,3.13,1.4,3.13,3.13Z"/>
      <path class="cls-1" d="M75.12,85.01c-2.34,0-4.23-1.9-4.23-4.24s1.9-4.23,4.23-4.23,4.24,1.9,4.24,4.23-1.9,4.24-4.24,4.24ZM75.12,78.75c-1.11,0-2.02.91-2.02,2.02s.91,2.02,2.02,2.02,2.02-.91,2.02-2.02-.91-2.02-2.02-2.02Z"/>
    </g>
    <g>
      <path class="cls-1" d="M78.25,80.77c0,1.73-1.4,3.13-3.13,3.13s-3.13-1.4-3.13-3.13,1.4-3.13,3.13-3.13,3.13,1.4,3.13,3.13Z"/>
      <path class="cls-1" d="M75.12,85.01c-2.34,0-4.23-1.9-4.23-4.24s1.9-4.23,4.23-4.23,4.24,1.9,4.24,4.23-1.9,4.24-4.24,4.24ZM75.12,78.75c-1.11,0-2.02.91-2.02,2.02s.91,2.02,2.02,2.02,2.02-.91,2.02-2.02-.91-2.02-2.02-2.02Z"/>
    </g>
    <g>
      <path class="cls-1" d="M78.25,80.77c0,1.73-1.4,3.13-3.13,3.13s-3.13-1.4-3.13-3.13,1.4-3.13,3.13-3.13,3.13,1.4,3.13,3.13Z"/>
      <path class="cls-1" d="M75.12,85.01c-2.34,0-4.23-1.9-4.23-4.24s1.9-4.23,4.23-4.23,4.24,1.9,4.24,4.23-1.9,4.24-4.24,4.24ZM75.12,78.75c-1.11,0-2.02.91-2.02,2.02s.91,2.02,2.02,2.02,2.02-.91,2.02-2.02-.91-2.02-2.02-2.02Z"/>
    </g>
    <g>
      <circle class="cls-1" cx="41.19" cy="77.52" r="3.13"/>
      <path class="cls-1" d="M41.19,81.76c-2.34,0-4.23-1.9-4.23-4.23s1.9-4.23,4.23-4.23,4.23,1.9,4.23,4.23-1.9,4.23-4.23,4.23ZM41.19,75.5c-1.11,0-2.02.91-2.02,2.02s.91,2.02,2.02,2.02,2.02-.91,2.02-2.02-.91-2.02-2.02-2.02Z"/>
    </g>
    <g>
      <circle class="cls-1" cx="41.19" cy="77.52" r="3.13"/>
      <path class="cls-1" d="M41.19,81.76c-2.34,0-4.23-1.9-4.23-4.23s1.9-4.23,4.23-4.23,4.23,1.9,4.23,4.23-1.9,4.23-4.23,4.23ZM41.19,75.5c-1.11,0-2.02.91-2.02,2.02s.91,2.02,2.02,2.02,2.02-.91,2.02-2.02-.91-2.02-2.02-2.02Z"/>
    </g>
    <g>
      <path class="cls-1" d="M77.64,63.16c0,1.73-1.4,3.13-3.13,3.13s-3.13-1.4-3.13-3.13,1.4-3.13,3.13-3.13,3.13,1.4,3.13,3.13Z"/>
      <path class="cls-1" d="M74.51,67.39c-2.34,0-4.23-1.9-4.23-4.23s1.9-4.24,4.23-4.24,4.23,1.9,4.23,4.24-1.9,4.23-4.23,4.23ZM74.51,61.13c-1.11,0-2.02.91-2.02,2.02s.91,2.02,2.02,2.02,2.02-.91,2.02-2.02-.91-2.02-2.02-2.02Z"/>
    </g>
    <g>
      <path class="cls-1" d="M78.25,80.77c0,1.73-1.4,3.13-3.13,3.13s-3.13-1.4-3.13-3.13,1.4-3.13,3.13-3.13,3.13,1.4,3.13,3.13Z"/>
      <path class="cls-1" d="M75.12,85.01c-2.34,0-4.23-1.9-4.23-4.24s1.9-4.23,4.23-4.23,4.24,1.9,4.24,4.23-1.9,4.24-4.24,4.24ZM75.12,78.75c-1.11,0-2.02.91-2.02,2.02s.91,2.02,2.02,2.02,2.02-.91,2.02-2.02-.91-2.02-2.02-2.02Z"/>
    </g>
    <g>
      <path class="cls-1" d="M77.64,63.16c0,1.73-1.4,3.13-3.13,3.13s-3.13-1.4-3.13-3.13,1.4-3.13,3.13-3.13,3.13,1.4,3.13,3.13Z"/>
      <path class="cls-1" d="M74.51,67.39c-2.34,0-4.23-1.9-4.23-4.23s1.9-4.24,4.23-4.24,4.23,1.9,4.23,4.24-1.9,4.23-4.23,4.23ZM74.51,61.13c-1.11,0-2.02.91-2.02,2.02s.91,2.02,2.02,2.02,2.02-.91,2.02-2.02-.91-2.02-2.02-2.02Z"/>
    </g>
    <g>
      <path class="cls-1" d="M117.07,75.38c0,1.73-1.4,3.13-3.13,3.13s-3.13-1.4-3.13-3.13,1.4-3.13,3.13-3.13,3.13,1.4,3.13,3.13Z"/>
      <path class="cls-1" d="M113.95,79.62c-2.34,0-4.24-1.9-4.24-4.24s1.9-4.23,4.24-4.23,4.23,1.9,4.23,4.23-1.9,4.24-4.23,4.24ZM113.95,73.36c-1.11,0-2.02.91-2.02,2.02s.91,2.02,2.02,2.02,2.02-.91,2.02-2.02-.91-2.02-2.02-2.02Z"/>
    </g>
    <g>
      <path class="cls-1" d="M77.64,63.16c0,1.73-1.4,3.13-3.13,3.13s-3.13-1.4-3.13-3.13,1.4-3.13,3.13-3.13,3.13,1.4,3.13,3.13Z"/>
      <path class="cls-1" d="M74.51,67.39c-2.34,0-4.23-1.9-4.23-4.23s1.9-4.24,4.23-4.24,4.23,1.9,4.23,4.24-1.9,4.23-4.23,4.23ZM74.51,61.13c-1.11,0-2.02.91-2.02,2.02s.91,2.02,2.02,2.02,2.02-.91,2.02-2.02-.91-2.02-2.02-2.02Z"/>
    </g>
    <g>
      <path class="cls-1" d="M77.64,63.16c0,1.73-1.4,3.13-3.13,3.13s-3.13-1.4-3.13-3.13,1.4-3.13,3.13-3.13,3.13,1.4,3.13,3.13Z"/>
      <path class="cls-1" d="M74.51,67.39c-2.34,0-4.23-1.9-4.23-4.23s1.9-4.24,4.23-4.24,4.23,1.9,4.23,4.24-1.9,4.23-4.23,4.23ZM74.51,61.13c-1.11,0-2.02.91-2.02,2.02s.91,2.02,2.02,2.02,2.02-.91,2.02-2.02-.91-2.02-2.02-2.02Z"/>
    </g>
    <g>
      <path class="cls-1" d="M77.64,63.16c0,1.73-1.4,3.13-3.13,3.13s-3.13-1.4-3.13-3.13,1.4-3.13,3.13-3.13,3.13,1.4,3.13,3.13Z"/>
      <path class="cls-1" d="M74.51,67.39c-2.34,0-4.23-1.9-4.23-4.23s1.9-4.24,4.23-4.24,4.23,1.9,4.23,4.24-1.9,4.23-4.23,4.23ZM74.51,61.13c-1.11,0-2.02.91-2.02,2.02s.91,2.02,2.02,2.02,2.02-.91,2.02-2.02-.91-2.02-2.02-2.02Z"/>
    </g>
    <g>
      <path class="cls-1" d="M33.84,102.71c0,1.73-1.4,3.13-3.13,3.13s-3.13-1.4-3.13-3.13,1.4-3.13,3.13-3.13,3.13,1.4,3.13,3.13Z"/>
      <path class="cls-1" d="M30.72,106.94c-2.34,0-4.23-1.9-4.23-4.24s1.9-4.24,4.23-4.24,4.23,1.9,4.23,4.24-1.9,4.24-4.23,4.24ZM30.72,100.68c-1.11,0-2.02.91-2.02,2.02s.91,2.02,2.02,2.02,2.02-.91,2.02-2.02-.91-2.02-2.02-2.02Z"/>
    </g>
    <g>
      <circle class="cls-1" cx="41.19" cy="77.52" r="3.13"/>
      <path class="cls-1" d="M41.19,81.76c-2.34,0-4.23-1.9-4.23-4.23s1.9-4.23,4.23-4.23,4.23,1.9,4.23,4.23-1.9,4.23-4.23,4.23ZM41.19,75.5c-1.11,0-2.02.91-2.02,2.02s.91,2.02,2.02,2.02,2.02-.91,2.02-2.02-.91-2.02-2.02-2.02Z"/>
    </g>
    <g>
      <path class="cls-1" d="M33.84,102.71c0,1.73-1.4,3.13-3.13,3.13s-3.13-1.4-3.13-3.13,1.4-3.13,3.13-3.13,3.13,1.4,3.13,3.13Z"/>
      <path class="cls-1" d="M30.72,106.94c-2.34,0-4.23-1.9-4.23-4.24s1.9-4.24,4.23-4.24,4.23,1.9,4.23,4.24-1.9,4.24-4.23,4.24ZM30.72,100.68c-1.11,0-2.02.91-2.02,2.02s.91,2.02,2.02,2.02,2.02-.91,2.02-2.02-.91-2.02-2.02-2.02Z"/>
    </g>
    <g>
      <path class="cls-1" d="M78.25,80.77c0,1.73-1.4,3.13-3.13,3.13s-3.13-1.4-3.13-3.13,1.4-3.13,3.13-3.13,3.13,1.4,3.13,3.13Z"/>
      <path class="cls-1" d="M75.12,85.01c-2.34,0-4.23-1.9-4.23-4.24s1.9-4.23,4.23-4.23,4.24,1.9,4.24,4.23-1.9,4.24-4.24,4.24ZM75.12,78.75c-1.11,0-2.02.91-2.02,2.02s.91,2.02,2.02,2.02,2.02-.91,2.02-2.02-.91-2.02-2.02-2.02Z"/>
    </g>
    <g>
      <path class="cls-1" d="M33.84,102.71c0,1.73-1.4,3.13-3.13,3.13s-3.13-1.4-3.13-3.13,1.4-3.13,3.13-3.13,3.13,1.4,3.13,3.13Z"/>
      <path class="cls-1" d="M30.72,106.94c-2.34,0-4.23-1.9-4.23-4.24s1.9-4.24,4.23-4.24,4.23,1.9,4.23,4.24-1.9,4.24-4.23,4.24ZM30.72,100.68c-1.11,0-2.02.91-2.02,2.02s.91,2.02,2.02,2.02,2.02-.91,2.02-2.02-.91-2.02-2.02-2.02Z"/>
    </g>
    <g>
      <path class="cls-1" d="M117.07,75.38c0,1.73-1.4,3.13-3.13,3.13s-3.13-1.4-3.13-3.13,1.4-3.13,3.13-3.13,3.13,1.4,3.13,3.13Z"/>
      <path class="cls-1" d="M113.95,79.62c-2.34,0-4.24-1.9-4.24-4.24s1.9-4.23,4.24-4.23,4.23,1.9,4.23,4.23-1.9,4.24-4.23,4.24ZM113.95,73.36c-1.11,0-2.02.91-2.02,2.02s.91,2.02,2.02,2.02,2.02-.91,2.02-2.02-.91-2.02-2.02-2.02Z"/>
    </g>
    <g>
      <path class="cls-1" d="M33.84,102.71c0,1.73-1.4,3.13-3.13,3.13s-3.13-1.4-3.13-3.13,1.4-3.13,3.13-3.13,3.13,1.4,3.13,3.13Z"/>
      <path class="cls-1" d="M30.72,106.94c-2.34,0-4.23-1.9-4.23-4.24s1.9-4.24,4.23-4.24,4.23,1.9,4.23,4.24-1.9,4.24-4.23,4.24ZM30.72,100.68c-1.11,0-2.02.91-2.02,2.02s.91,2.02,2.02,2.02,2.02-.91,2.02-2.02-.91-2.02-2.02-2.02Z"/>
    </g>
    <g>
      <path class="cls-1" d="M33.84,102.71c0,1.73-1.4,3.13-3.13,3.13s-3.13-1.4-3.13-3.13,1.4-3.13,3.13-3.13,3.13,1.4,3.13,3.13Z"/>
      <path class="cls-1" d="M30.72,106.94c-2.34,0-4.23-1.9-4.23-4.24s1.9-4.24,4.23-4.24,4.23,1.9,4.23,4.24-1.9,4.24-4.23,4.24ZM30.72,100.68c-1.11,0-2.02.91-2.02,2.02s.91,2.02,2.02,2.02,2.02-.91,2.02-2.02-.91-2.02-2.02-2.02Z"/>
    </g>
    <g>
      <path class="cls-1" d="M32.32,117.95c0,1.73-1.4,3.13-3.13,3.13s-3.13-1.4-3.13-3.13,1.4-3.13,3.13-3.13,3.13,1.4,3.13,3.13Z"/>
      <path class="cls-1" d="M29.19,122.18c-2.34,0-4.24-1.9-4.24-4.23s1.9-4.23,4.24-4.23,4.23,1.9,4.23,4.23-1.9,4.23-4.23,4.23ZM29.19,115.93c-1.11,0-2.02.91-2.02,2.02s.91,2.02,2.02,2.02,2.02-.91,2.02-2.02-.91-2.02-2.02-2.02Z"/>
    </g>
    <g>
      <path class="cls-1" d="M77.64,63.16c0,1.73-1.4,3.13-3.13,3.13s-3.13-1.4-3.13-3.13,1.4-3.13,3.13-3.13,3.13,1.4,3.13,3.13Z"/>
      <path class="cls-1" d="M74.51,67.39c-2.34,0-4.23-1.9-4.23-4.23s1.9-4.24,4.23-4.24,4.23,1.9,4.23,4.24-1.9,4.23-4.23,4.23ZM74.51,61.13c-1.11,0-2.02.91-2.02,2.02s.91,2.02,2.02,2.02,2.02-.91,2.02-2.02-.91-2.02-2.02-2.02Z"/>
    </g>
    <g>
      <path class="cls-1" d="M32.32,117.95c0,1.73-1.4,3.13-3.13,3.13s-3.13-1.4-3.13-3.13,1.4-3.13,3.13-3.13,3.13,1.4,3.13,3.13Z"/>
      <path class="cls-1" d="M29.19,122.18c-2.34,0-4.24-1.9-4.24-4.23s1.9-4.23,4.24-4.23,4.23,1.9,4.23,4.23-1.9,4.23-4.23,4.23ZM29.19,115.93c-1.11,0-2.02.91-2.02,2.02s.91,2.02,2.02,2.02,2.02-.91,2.02-2.02-.91-2.02-2.02-2.02Z"/>
    </g>
    <g>
      <path class="cls-1" d="M117.09,160.51c0,1.73-1.4,3.13-3.13,3.13s-3.13-1.4-3.13-3.13,1.4-3.13,3.13-3.13,3.13,1.4,3.13,3.13Z"/>
      <path class="cls-1" d="M113.96,164.75c-2.34,0-4.24-1.9-4.24-4.24s1.9-4.24,4.24-4.24,4.23,1.9,4.23,4.24-1.9,4.24-4.23,4.24ZM113.96,158.49c-1.11,0-2.02.91-2.02,2.02s.91,2.02,2.02,2.02,2.02-.91,2.02-2.02-.91-2.02-2.02-2.02Z"/>
    </g>
    <g>
      <path class="cls-1" d="M117.09,160.51c0,1.73-1.4,3.13-3.13,3.13s-3.13-1.4-3.13-3.13,1.4-3.13,3.13-3.13,3.13,1.4,3.13,3.13Z"/>
      <path class="cls-1" d="M113.96,164.75c-2.34,0-4.24-1.9-4.24-4.24s1.9-4.24,4.24-4.24,4.23,1.9,4.23,4.24-1.9,4.24-4.23,4.24ZM113.96,158.49c-1.11,0-2.02.91-2.02,2.02s.91,2.02,2.02,2.02,2.02-.91,2.02-2.02-.91-2.02-2.02-2.02Z"/>
    </g>
    <g>
      <path class="cls-1" d="M78.27,155.12c0,1.73-1.4,3.13-3.13,3.13s-3.13-1.4-3.13-3.13,1.4-3.13,3.13-3.13,3.13,1.4,3.13,3.13Z"/>
      <path class="cls-1" d="M75.14,159.36c-2.34,0-4.23-1.9-4.23-4.23s1.9-4.24,4.23-4.24,4.24,1.9,4.24,4.24-1.9,4.23-4.24,4.23ZM75.14,153.1c-1.11,0-2.02.91-2.02,2.02s.91,2.02,2.02,2.02,2.02-.91,2.02-2.02-.91-2.02-2.02-2.02Z"/>
    </g>
    <g>
      <path class="cls-1" d="M78.27,155.12c0,1.73-1.4,3.13-3.13,3.13s-3.13-1.4-3.13-3.13,1.4-3.13,3.13-3.13,3.13,1.4,3.13,3.13Z"/>
      <path class="cls-1" d="M75.14,159.36c-2.34,0-4.23-1.9-4.23-4.23s1.9-4.24,4.23-4.24,4.24,1.9,4.24,4.24-1.9,4.23-4.24,4.23ZM75.14,153.1c-1.11,0-2.02.91-2.02,2.02s.91,2.02,2.02,2.02,2.02-.91,2.02-2.02-.91-2.02-2.02-2.02Z"/>
    </g>
    <g>
      <path class="cls-1" d="M78.27,155.12c0,1.73-1.4,3.13-3.13,3.13s-3.13-1.4-3.13-3.13,1.4-3.13,3.13-3.13,3.13,1.4,3.13,3.13Z"/>
      <path class="cls-1" d="M75.14,159.36c-2.34,0-4.23-1.9-4.23-4.23s1.9-4.24,4.23-4.24,4.24,1.9,4.24,4.24-1.9,4.23-4.24,4.23ZM75.14,153.1c-1.11,0-2.02.91-2.02,2.02s.91,2.02,2.02,2.02,2.02-.91,2.02-2.02-.91-2.02-2.02-2.02Z"/>
    </g>
    <g>
      <path class="cls-1" d="M44.33,158.37c0,1.73-1.4,3.13-3.13,3.13s-3.13-1.4-3.13-3.13,1.4-3.13,3.13-3.13,3.13,1.4,3.13,3.13Z"/>
      <path class="cls-1" d="M41.21,162.6c-2.33,0-4.23-1.9-4.23-4.23s1.9-4.23,4.23-4.23,4.23,1.9,4.23,4.23-1.9,4.23-4.23,4.23ZM41.21,156.35c-1.11,0-2.02.91-2.02,2.02s.91,2.02,2.02,2.02,2.02-.91,2.02-2.02-.91-2.02-2.02-2.02Z"/>
    </g>
    <g>
      <path class="cls-1" d="M44.33,158.37c0,1.73-1.4,3.13-3.13,3.13s-3.13-1.4-3.13-3.13,1.4-3.13,3.13-3.13,3.13,1.4,3.13,3.13Z"/>
      <path class="cls-1" d="M41.21,162.6c-2.33,0-4.23-1.9-4.23-4.23s1.9-4.23,4.23-4.23,4.23,1.9,4.23,4.23-1.9,4.23-4.23,4.23ZM41.21,156.35c-1.11,0-2.02.91-2.02,2.02s.91,2.02,2.02,2.02,2.02-.91,2.02-2.02-.91-2.02-2.02-2.02Z"/>
    </g>
    <g>
      <path class="cls-1" d="M77.66,172.74c0,1.73-1.4,3.13-3.13,3.13s-3.13-1.4-3.13-3.13,1.4-3.13,3.13-3.13,3.13,1.4,3.13,3.13Z"/>
      <path class="cls-1" d="M74.53,176.97c-2.33,0-4.23-1.9-4.23-4.23s1.9-4.24,4.23-4.24,4.24,1.9,4.24,4.24-1.9,4.23-4.24,4.23ZM74.53,170.72c-1.11,0-2.02.91-2.02,2.02s.91,2.02,2.02,2.02,2.02-.91,2.02-2.02-.91-2.02-2.02-2.02Z"/>
    </g>
    <g>
      <path class="cls-1" d="M78.27,155.12c0,1.73-1.4,3.13-3.13,3.13s-3.13-1.4-3.13-3.13,1.4-3.13,3.13-3.13,3.13,1.4,3.13,3.13Z"/>
      <path class="cls-1" d="M75.14,159.36c-2.34,0-4.23-1.9-4.23-4.23s1.9-4.24,4.23-4.24,4.24,1.9,4.24,4.24-1.9,4.23-4.24,4.23ZM75.14,153.1c-1.11,0-2.02.91-2.02,2.02s.91,2.02,2.02,2.02,2.02-.91,2.02-2.02-.91-2.02-2.02-2.02Z"/>
    </g>
    <g>
      <path class="cls-1" d="M77.66,172.74c0,1.73-1.4,3.13-3.13,3.13s-3.13-1.4-3.13-3.13,1.4-3.13,3.13-3.13,3.13,1.4,3.13,3.13Z"/>
      <path class="cls-1" d="M74.53,176.97c-2.33,0-4.23-1.9-4.23-4.23s1.9-4.24,4.23-4.24,4.24,1.9,4.24,4.24-1.9,4.23-4.24,4.23ZM74.53,170.72c-1.11,0-2.02.91-2.02,2.02s.91,2.02,2.02,2.02,2.02-.91,2.02-2.02-.91-2.02-2.02-2.02Z"/>
    </g>
    <g>
      <path class="cls-1" d="M117.09,160.51c0,1.73-1.4,3.13-3.13,3.13s-3.13-1.4-3.13-3.13,1.4-3.13,3.13-3.13,3.13,1.4,3.13,3.13Z"/>
      <path class="cls-1" d="M113.96,164.75c-2.34,0-4.24-1.9-4.24-4.24s1.9-4.24,4.24-4.24,4.23,1.9,4.23,4.24-1.9,4.24-4.23,4.24ZM113.96,158.49c-1.11,0-2.02.91-2.02,2.02s.91,2.02,2.02,2.02,2.02-.91,2.02-2.02-.91-2.02-2.02-2.02Z"/>
    </g>
    <g>
      <path class="cls-1" d="M77.66,172.74c0,1.73-1.4,3.13-3.13,3.13s-3.13-1.4-3.13-3.13,1.4-3.13,3.13-3.13,3.13,1.4,3.13,3.13Z"/>
      <path class="cls-1" d="M74.53,176.97c-2.33,0-4.23-1.9-4.23-4.23s1.9-4.24,4.23-4.24,4.24,1.9,4.24,4.24-1.9,4.23-4.24,4.23ZM74.53,170.72c-1.11,0-2.02.91-2.02,2.02s.91,2.02,2.02,2.02,2.02-.91,2.02-2.02-.91-2.02-2.02-2.02Z"/>
    </g>
    <g>
      <path class="cls-1" d="M77.66,172.74c0,1.73-1.4,3.13-3.13,3.13s-3.13-1.4-3.13-3.13,1.4-3.13,3.13-3.13,3.13,1.4,3.13,3.13Z"/>
      <path class="cls-1" d="M74.53,176.97c-2.33,0-4.23-1.9-4.23-4.23s1.9-4.24,4.23-4.24,4.24,1.9,4.24,4.24-1.9,4.23-4.24,4.23ZM74.53,170.72c-1.11,0-2.02.91-2.02,2.02s.91,2.02,2.02,2.02,2.02-.91,2.02-2.02-.91-2.02-2.02-2.02Z"/>
    </g>
    <g>
      <path class="cls-1" d="M77.66,172.74c0,1.73-1.4,3.13-3.13,3.13s-3.13-1.4-3.13-3.13,1.4-3.13,3.13-3.13,3.13,1.4,3.13,3.13Z"/>
      <path class="cls-1" d="M74.53,176.97c-2.33,0-4.23-1.9-4.23-4.23s1.9-4.24,4.23-4.24,4.24,1.9,4.24,4.24-1.9,4.23-4.24,4.23ZM74.53,170.72c-1.11,0-2.02.91-2.02,2.02s.91,2.02,2.02,2.02,2.02-.91,2.02-2.02-.91-2.02-2.02-2.02Z"/>
    </g>
    <g>
      <path class="cls-1" d="M33.86,133.19c0,1.73-1.4,3.13-3.13,3.13s-3.13-1.4-3.13-3.13,1.4-3.13,3.13-3.13,3.13,1.4,3.13,3.13Z"/>
      <path class="cls-1" d="M30.74,137.42c-2.34,0-4.23-1.9-4.23-4.24s1.9-4.23,4.23-4.23,4.23,1.9,4.23,4.23-1.9,4.24-4.23,4.24ZM30.74,131.17c-1.11,0-2.02.91-2.02,2.02s.91,2.02,2.02,2.02,2.02-.91,2.02-2.02-.91-2.02-2.02-2.02Z"/>
    </g>
    <g>
      <path class="cls-1" d="M44.33,158.37c0,1.73-1.4,3.13-3.13,3.13s-3.13-1.4-3.13-3.13,1.4-3.13,3.13-3.13,3.13,1.4,3.13,3.13Z"/>
      <path class="cls-1" d="M41.21,162.6c-2.33,0-4.23-1.9-4.23-4.23s1.9-4.23,4.23-4.23,4.23,1.9,4.23,4.23-1.9,4.23-4.23,4.23ZM41.21,156.35c-1.11,0-2.02.91-2.02,2.02s.91,2.02,2.02,2.02,2.02-.91,2.02-2.02-.91-2.02-2.02-2.02Z"/>
    </g>
    <g>
      <path class="cls-1" d="M33.86,133.19c0,1.73-1.4,3.13-3.13,3.13s-3.13-1.4-3.13-3.13,1.4-3.13,3.13-3.13,3.13,1.4,3.13,3.13Z"/>
      <path class="cls-1" d="M30.74,137.42c-2.34,0-4.23-1.9-4.23-4.24s1.9-4.23,4.23-4.23,4.23,1.9,4.23,4.23-1.9,4.24-4.23,4.24ZM30.74,131.17c-1.11,0-2.02.91-2.02,2.02s.91,2.02,2.02,2.02,2.02-.91,2.02-2.02-.91-2.02-2.02-2.02Z"/>
    </g>
    <g>
      <path class="cls-1" d="M78.27,155.12c0,1.73-1.4,3.13-3.13,3.13s-3.13-1.4-3.13-3.13,1.4-3.13,3.13-3.13,3.13,1.4,3.13,3.13Z"/>
      <path class="cls-1" d="M75.14,159.36c-2.34,0-4.23-1.9-4.23-4.23s1.9-4.24,4.23-4.24,4.24,1.9,4.24,4.24-1.9,4.23-4.24,4.23ZM75.14,153.1c-1.11,0-2.02.91-2.02,2.02s.91,2.02,2.02,2.02,2.02-.91,2.02-2.02-.91-2.02-2.02-2.02Z"/>
    </g>
    <g>
      <path class="cls-1" d="M33.86,133.19c0,1.73-1.4,3.13-3.13,3.13s-3.13-1.4-3.13-3.13,1.4-3.13,3.13-3.13,3.13,1.4,3.13,3.13Z"/>
      <path class="cls-1" d="M30.74,137.42c-2.34,0-4.23-1.9-4.23-4.24s1.9-4.23,4.23-4.23,4.23,1.9,4.23,4.23-1.9,4.24-4.23,4.24ZM30.74,131.17c-1.11,0-2.02.91-2.02,2.02s.91,2.02,2.02,2.02,2.02-.91,2.02-2.02-.91-2.02-2.02-2.02Z"/>
    </g>
    <g>
      <path class="cls-1" d="M117.09,160.51c0,1.73-1.4,3.13-3.13,3.13s-3.13-1.4-3.13-3.13,1.4-3.13,3.13-3.13,3.13,1.4,3.13,3.13Z"/>
      <path class="cls-1" d="M113.96,164.75c-2.34,0-4.24-1.9-4.24-4.24s1.9-4.24,4.24-4.24,4.23,1.9,4.23,4.24-1.9,4.24-4.23,4.24ZM113.96,158.49c-1.11,0-2.02.91-2.02,2.02s.91,2.02,2.02,2.02,2.02-.91,2.02-2.02-.91-2.02-2.02-2.02Z"/>
    </g>
    <g>
      <path class="cls-1" d="M33.86,133.19c0,1.73-1.4,3.13-3.13,3.13s-3.13-1.4-3.13-3.13,1.4-3.13,3.13-3.13,3.13,1.4,3.13,3.13Z"/>
      <path class="cls-1" d="M30.74,137.42c-2.34,0-4.23-1.9-4.23-4.24s1.9-4.23,4.23-4.23,4.23,1.9,4.23,4.23-1.9,4.24-4.23,4.24ZM30.74,131.17c-1.11,0-2.02.91-2.02,2.02s.91,2.02,2.02,2.02,2.02-.91,2.02-2.02-.91-2.02-2.02-2.02Z"/>
    </g>
    <g>
      <path class="cls-1" d="M33.86,133.19c0,1.73-1.4,3.13-3.13,3.13s-3.13-1.4-3.13-3.13,1.4-3.13,3.13-3.13,3.13,1.4,3.13,3.13Z"/>
      <path class="cls-1" d="M30.74,137.42c-2.34,0-4.23-1.9-4.23-4.24s1.9-4.23,4.23-4.23,4.23,1.9,4.23,4.23-1.9,4.24-4.23,4.24ZM30.74,131.17c-1.11,0-2.02.91-2.02,2.02s.91,2.02,2.02,2.02,2.02-.91,2.02-2.02-.91-2.02-2.02-2.02Z"/>
    </g>
    <g>
      <path class="cls-1" d="M32.33,117.94c0,1.73-1.4,3.13-3.13,3.13s-3.13-1.4-3.13-3.13,1.4-3.13,3.13-3.13,3.13,1.4,3.13,3.13Z"/>
      <path class="cls-1" d="M29.21,122.18c-2.33,0-4.23-1.9-4.23-4.23s1.9-4.23,4.23-4.23,4.24,1.9,4.24,4.23-1.9,4.23-4.24,4.23ZM29.21,115.92c-1.11,0-2.02.91-2.02,2.02s.91,2.02,2.02,2.02,2.02-.91,2.02-2.02-.91-2.02-2.02-2.02Z"/>
    </g>
    <g>
      <path class="cls-1" d="M77.66,172.74c0,1.73-1.4,3.13-3.13,3.13s-3.13-1.4-3.13-3.13,1.4-3.13,3.13-3.13,3.13,1.4,3.13,3.13Z"/>
      <path class="cls-1" d="M74.53,176.97c-2.33,0-4.23-1.9-4.23-4.23s1.9-4.24,4.23-4.24,4.24,1.9,4.24,4.24-1.9,4.23-4.24,4.23ZM74.53,170.72c-1.11,0-2.02.91-2.02,2.02s.91,2.02,2.02,2.02,2.02-.91,2.02-2.02-.91-2.02-2.02-2.02Z"/>
    </g>
    <g>
      <path class="cls-1" d="M32.33,117.94c0,1.73-1.4,3.13-3.13,3.13s-3.13-1.4-3.13-3.13,1.4-3.13,3.13-3.13,3.13,1.4,3.13,3.13Z"/>
      <path class="cls-1" d="M29.21,122.18c-2.33,0-4.23-1.9-4.23-4.23s1.9-4.23,4.23-4.23,4.24,1.9,4.24,4.23-1.9,4.23-4.24,4.23ZM29.21,115.92c-1.11,0-2.02.91-2.02,2.02s.91,2.02,2.02,2.02,2.02-.91,2.02-2.02-.91-2.02-2.02-2.02Z"/>
    </g>
  </g>
  <text class="cls-3" transform="translate(2.22 272.33)"><tspan x="0" y="0">LAds</tspan></text>
</svg>